<svg fill="#dfdfdf" xmlns="http://www.w3.org/2000/svg"  viewBox="2 2 20 20 "><path d="M21,5v14c0,1.105-0.896,2-2,2H5c-1.104,0-2-0.895-2-2V5c0-1.105,0.896-2,2-2h14C20.104,3,21,3.895,21,5z M10.603,15.407 c0.101,0.361,0.438,0.612,0.823,0.612h0.015c0.58,0,0.991-0.552,0.81-1.089l-2.077-6.181c-0.146-0.436-0.564-0.73-1.034-0.73h0 c-0.471,0-0.889,0.295-1.035,0.732l-2.063,6.181c-0.179,0.537,0.232,1.087,0.811,1.087h0c0.385,0,0.722-0.251,0.823-0.612 l0.287-1.025h2.354L10.603,15.407z M9.137,10.184l0.798,2.852H8.338L9.137,10.184z M16.04,15.371 c0.034,0.402,0.388,0.705,0.802,0.686l0.076-0.004c0.409-0.019,0.73-0.348,0.73-0.747v-4.473c0-0.45-0.374-0.815-0.836-0.815h0 c-0.462,0-0.836,0.365-0.836,0.815v3.443c-0.168,0.305-0.442,0.457-0.822,0.457c-0.403,0-0.608-0.287-0.616-0.86v-3.046 c0-0.447-0.372-0.809-0.831-0.809h0c-0.459,0-0.831,0.362-0.831,0.809v3.008c0,0.711,0.151,1.253,0.452,1.625 c0.301,0.372,0.743,0.558,1.327,0.558C15.234,16.019,15.695,15.803,16.04,15.371L16.04,15.371z"/></svg>